<svg xmlns="http://www.w3.org/2000/svg" fill="currentColor" viewBox="0 0 2322.438 314.26"><title>NeverBlink</title><path d="M783.902 262.473c0 3.474 2.843 6.317 6.318 6.317h30.007c3.475 0 6.317-2.843 6.317-6.317V123.81l102.969 137.715c2.844 3.79 6.635 7.265 13.9 7.265h21.478c3.475 0 6.317-2.843 6.317-6.317V68.85c0-11.687-9.476-21.163-21.162-21.163-12.003 0-21.479 9.476-21.479 21.163v126.028L831.597 65.06c-6.001-8.212-13.582-17.372-25.9-17.372-13.582 0-21.795 9.476-21.795 21.163zm352.5-59.698c8.213 0 19.584-4.106 19.584-20.215 0-45.8-32.218-78.333-77.386-78.333-47.063 0-80.544 35.06-80.544 84.335s34.744 84.334 83.703 84.334c17.688 0 63.487-6.001 63.487-30.954 0-9.16-7.264-17.372-18.004-17.372-4.106 0-9.16 1.263-14.213 4.106-9.476 5.685-19.268 7.58-31.27 7.58-20.847 0-36.956-13.266-42.326-33.48zm-57.802-61.908c19.267 0 33.797 13.266 36.956 33.165h-76.123c5.054-20.215 19.9-33.165 39.167-33.165m153.508 117.5c3.475 7.58 7.58 10.423 14.846 10.423h7.896c7.265 0 11.371-2.843 14.845-10.423l58.435-125.08c4.737-10.108.315-22.111-10.108-26.849-2.527-1.263-5.685-1.895-8.528-1.895-7.58 0-15.161 4.422-18.32 11.687l-40.114 89.704-40.43-89.704c-3.475-7.265-11.055-11.687-18.636-11.687-2.527 0-5.686.632-8.212 1.895-10.424 4.738-14.846 16.74-10.108 26.848zm250.162-55.592c8.213 0 19.584-4.106 19.584-20.215 0-45.8-32.218-78.333-77.386-78.333-47.063 0-80.544 35.06-80.544 84.335s34.744 84.334 83.703 84.334c17.688 0 63.487-6.001 63.487-30.954 0-9.16-7.264-17.372-18.004-17.372-4.106 0-9.16 1.263-14.213 4.106-9.476 5.685-19.268 7.58-31.27 7.58-20.847 0-36.956-13.266-42.326-33.48zm-57.802-61.908c19.267 0 33.797 13.266 36.956 33.165H1385.3c5.054-20.215 19.9-33.165 39.167-33.165zm178.777-36.324c-48.01 0-75.806 29.69-75.806 72.332v85.914c0 3.158 2.842 6.001 6 6.001h28.744c3.159 0 6.002-2.843 6.002-6.001v-84.967c0-22.11 11.686-37.903 35.06-37.903h9.476a17.66 17.66 0 0 0 17.688-17.688 17.66 17.66 0 0 0-17.688-17.688zM1747.07 269.66c48.01 0 71.7-30.954 71.7-62.224 0-20.847-10.74-41.378-32.218-52.749 12.95-12.003 19.267-28.112 19.267-44.22 0-30.955-23.69-61.909-71.7-61.909h-67.278c-12.003 0-21.479 9.476-21.479 21.163v193.622c0 3.474 2.843 6.317 6.318 6.317Zm-59.068-93.179h57.488c20.847 0 30.954 13.266 30.954 26.217 0 13.266-10.107 26.532-30.954 26.532h-57.487Zm0-87.493h44.537c20.846 0 30.954 13.266 30.954 26.216 0 13.267-10.108 26.533-30.954 26.533h-44.536Zm153.193 174.67c0 3.16 2.843 6.002 6.002 6.002h28.743c3.159 0 6.001-2.843 6.001-6.001V62.456c0-11.055-9.16-20.215-20.215-20.215-11.37 0-20.53 9.16-20.53 20.215zm73.912 0c0 3.16 2.843 6.002 6.001 6.002h28.743c3.16 0 6.002-2.843 6.002-6.001V125.628c0-11.055-9.16-20.215-20.215-20.215-11.371 0-20.531 9.16-20.531 20.215zm-4.422-200.886c0 13.582 11.055 24.637 24.953 24.637 13.582 0 24.637-11.055 24.637-24.637s-11.055-24.637-24.637-24.637c-13.898 0-24.953 11.055-24.953 24.637M2100.2 263.659c0 3.158 2.842 6.001 6.001 6.001h28.743c3.159 0 6.002-2.843 6.002-6.001v-86.23c0-42.641-27.796-72.332-67.279-72.332-17.688 0-32.849 5.685-44.536 15.793-1.895-8.844-10.107-15.477-19.583-15.477-11.371 0-20.531 9.16-20.531 20.215v138.03c0 3.16 2.843 6.002 6.001 6.002h28.744c3.158 0 6-2.843 6-6.001v-85.283c0-22.11 14.53-37.587 35.377-37.587 20.531 0 35.06 15.477 35.06 37.587zm176.566.316c3.474 5.053 9.791 7.896 15.793 7.896 3.79 0 7.58-.948 10.739-3.159 8.844-6.633 11.37-18.32 5.37-26.848l-51.486-72.647 33.482-32.85c6.948-6.949 6.633-18.004-.316-25.269-3.159-3.474-7.581-5.053-12.319-5.053-4.422 0-9.16 1.579-12.634 5.053l-56.223 54.96V62.456c0-11.055-9.16-20.215-20.215-20.215-11.371 0-20.531 9.16-20.531 20.215v201.203c0 3.158 2.842 6.001 6.001 6.001h28.743c3.159 0 6.002-2.843 6.002-6.001v-47.38l20.215-19.583zM655.68 133.98l-.77.98C581.8 236.54 462.82 302.91 328.29 303.75c-.87.01-1.75.01-2.62.01s-1.75 0-2.62-.01c-65.23-.41-126.8-16.23-181.26-44 21.35 3.73 43.3 5.76 65.67 5.98 1.39.01 2.79.03 4.19.03 127.93 0 242.02-59.26 316.33-151.81 3.38-4.22 6.69-8.52 9.9-12.88 6.78-9.16 13.18-18.62 19.19-28.36l.06-.08 1.69-2.51c10.25-16.13 28.28-26.83 48.79-26.83 31.91 0 57.78 25.87 57.78 57.78 0 12.6-2.88 23.43-9.71 32.91M534 54.51c-21.35-3.73-43.3-5.76-65.67-5.98-1.39-.01-2.79-.03-4.19-.03-127.93 0-242.02 59.26-316.33 151.81a400 400 0 0 0-9.9 12.88 399 399 0 0 0-18.97 28.03c-.75 1.21-1.49 2.42-2.22 3.65-10.36 15.62-28.12 25.91-48.28 25.91-32 0-57.94-25.93-57.94-57.94 0-12.84 3.43-24.03 10.5-33.61 0 0 .35-.58.48-.76C91.24 75.07 213.21 11.43 347.28 10.51c.94-.01 1.9-.01 2.84-.01.87 0 1.75 0 2.62.01 65.23.41 126.8 16.23 181.26 44"/></svg>